<svg width="432" height="318" viewBox="0 0 432 318" fill="none" xmlns="http://www.w3.org/2000/svg">
<path d="M384 13V16" stroke="#FFD600" stroke-width="3" stroke-linecap="round"/>
<path d="M377 15H385" stroke="#FFD600" stroke-width="3" stroke-linecap="round"/>
<path d="M385 12C384.59 14.0524 381.116 19 379 19" stroke="#FFD600" stroke-width="3" stroke-linecap="round"/>
<path d="M377 12C380.965 15.0501 383.74 19.6968 385.389 24.3889C385.73 25.3605 386.779 30.442 388 28" stroke="#FFD600" stroke-width="3" stroke-linecap="round"/>
<path d="M242 140C241.35 141.422 240.225 142.608 239.121 143.78C236.576 146.482 233.811 149.036 230.84 151.382C229.565 152.388 220.471 160.144 219 158.856" stroke="#FFD600" stroke-width="3" stroke-linecap="round"/>
<path d="M226 137C230.075 143.077 233.589 149.33 238.178 155.164C239.512 156.86 241.002 158.379 242.674 159.818C243.403 160.445 242.699 159.272 242.581 158.994" stroke="#FFD600" stroke-width="3" stroke-linecap="round"/>
<path d="M250 148C239.728 149.65 229.425 150 219 150" stroke="#FFD600" stroke-width="3" stroke-linecap="round"/>
<path d="M234 132C234 137.543 232.228 143.011 231.368 148.494C230.895 151.504 230.865 154.483 230.581 157.493C230.468 158.694 230.098 157.425 230 157.11" stroke="#FFD600" stroke-width="3" stroke-linecap="round"/>
<path d="M298 296C297.35 297.422 296.225 298.608 295.121 299.78C292.576 302.482 289.811 305.036 286.84 307.382C285.565 308.388 276.471 316.144 275 314.856" stroke="#FFD600" stroke-width="3" stroke-linecap="round"/>
<path d="M282 293C286.075 299.077 289.589 305.33 294.178 311.164C295.512 312.86 297.002 314.379 298.674 315.818C299.403 316.445 298.699 315.272 298.581 314.994" stroke="#FFD600" stroke-width="3" stroke-linecap="round"/>
<path d="M302 302C291.728 303.65 281.425 304 271 304" stroke="#FFD600" stroke-width="3" stroke-linecap="round"/>
<path d="M290 290C290 295.543 288.228 301.011 287.368 306.494C286.895 309.504 286.865 312.483 286.581 315.493C286.468 316.694 286.098 315.425 286 315.11" stroke="#FFD600" stroke-width="3" stroke-linecap="round"/>
<path d="M165 5C164.35 6.42154 163.225 7.60762 162.121 8.77974C159.576 11.4821 156.811 14.0361 153.84 16.3817C152.565 17.3876 143.471 25.1436 142 23.8563" stroke="#FFD600" stroke-width="3" stroke-linecap="round"/>
<path d="M149 5C153.075 11.0769 156.589 17.3301 161.178 23.164C162.512 24.8596 164.002 26.3793 165.674 27.8182C166.403 28.4451 165.699 27.2715 165.581 26.9945" stroke="#FFD600" stroke-width="3" stroke-linecap="round"/>
<path d="M158 2C158 7.54285 156.228 13.0106 155.368 18.4941C154.895 21.5043 154.865 24.4825 154.581 27.4933C154.468 28.6943 154.098 27.4245 154 27.1104" stroke="#FFD600" stroke-width="3" stroke-linecap="round"/>
<path d="M25 132C24.3503 133.422 23.2247 134.608 22.121 135.78C19.5763 138.482 16.8112 141.036 13.8397 143.382C12.5654 144.388 3.47085 152.144 2 150.856" stroke="#FFD600" stroke-width="3" stroke-linecap="round"/>
<path d="M9 129C13.0754 135.077 16.5893 141.33 21.1779 147.164C22.5116 148.86 24.0025 150.379 25.6743 151.818C26.4027 152.445 25.6988 151.272 25.5806 150.994" stroke="#FFD600" stroke-width="3" stroke-linecap="round"/>
<path d="M18 129C18 134.543 16.2284 140.011 15.3675 145.494C14.8949 148.504 14.8652 151.483 14.5812 154.493C14.4679 155.694 14.0982 154.425 14 154.11" stroke="#FFD600" stroke-width="3" stroke-linecap="round"/>
<path d="M420 245C420 250.101 421 255.025 421 260" stroke="#FFD600" stroke-width="3" stroke-linecap="round"/>
<path d="M410 251C412.17 254.907 423.055 254.027 427 256" stroke="#FFD600" stroke-width="3" stroke-linecap="round"/>
<path d="M423 249C419.684 252.647 416.962 257.051 414 261" stroke="#FFD600" stroke-width="3" stroke-linecap="round"/>
<path d="M411 242C415.872 247.955 419.106 255.735 423 262.333C423.865 263.799 432.075 276.113 430 273" stroke="#FFD600" stroke-width="3" stroke-linecap="round"/>
<path d="M113 257.96C111.054 257.96 109.329 255.56 109.056 256.516C108.183 259.571 114.754 257.159 111.778 254.183C109.208 251.613 111.486 256.127 109.444 254.96C107.041 253.587 108.154 256.64 110 257.183C110.875 257.44 115.577 259.003 115.944 257.349C116.432 255.157 114.972 248.183 111.222 251.183C110.556 251.716 109.433 252.868 111 252.96C111.357 252.982 112 253.707 112 253.349C112 249.074 108 246.829 108 251.96C108 257.514 109.799 252.41 112 252.96" stroke="#FFD600" stroke-width="3" stroke-linecap="round"/>
</svg>
