<svg width="130" height="275" viewBox="0 0 130 275" fill="none" xmlns="http://www.w3.org/2000/svg">
<g filter="url(#filter0_b_6_169)">
<g clip-path="url(#clip0_6_169)">
<path d="M43.0149 127.293C35.2766 127.293 31.7976 114.734 31.4732 109.476C31.2483 105.83 30.0381 102.19 29.8244 98.3413C29.5989 94.2796 29 90.2616 29 86.0926C29 72.483 29 58.8735 29 45.2639C29 41.3989 31.4266 38.9572 32.2518 35.6134C32.6756 33.8961 33.0412 33.3739 34.3128 31.9017C35.7641 30.2216 34.8992 28.8578 35.7784 27.0765C37.1155 24.3675 40.2391 23.2613 42.0073 20.3954C43.732 17.5999 47.0852 16.8064 48.7857 14.1268C49.1729 13.5166 63.9935 1.83002 64.2662 2.00188C65.3236 2.66841 66.0794 4.53831 66.7394 5.54862C67.5838 6.84129 68.9452 6.95748 70.037 7.94061C72.7813 10.4118 76.1093 13.0926 79.3344 14.7866C82.7124 16.561 84.7247 16.8573 86.7083 19.983C88.103 22.1808 90.2055 24.9933 92.0669 26.3342C94.8815 28.3618 94.6945 32.1638 97.7919 33.7576C98.2206 33.9782 99.015 36.8533 99.4407 37.5105C100.324 38.8732 99.9601 41.3291 100.906 42.5007C102.91 44.9816 101.548 51.4275 101.548 54.5431C101.548 59.6158 101.548 64.6885 101.548 69.7611C101.548 78.0506 101.548 86.3401 101.548 94.6295C101.548 100.692 101.548 106.754 101.548 112.817C101.548 113.719 102.054 116.403 101.09 116.9C100.07 117.424 98.177 119.729 97.7919 119.828C96.159 120.248 95.2046 121.247 94.0821 122.426C93.3755 123.168 91.7791 122.758 90.8303 122.88C89.2046 123.089 89.1732 124.091 88.1739 124.901C82.8769 129.193 74.9992 128.777 68.1592 128.777C59.6025 128.777 49.9428 130.041 42.1905 126.55" stroke="#FF0000" stroke-width="3" stroke-linecap="round"/>
<path d="M64.2632 33.97C61.9612 33.848 62.0549 31.8383 60.1404 31.7425C57.3815 31.6045 54.7176 31 51.9405 31C47.4359 31 42 35.9783 42 39.9099C42 47.3652 44.6814 51.8057 51.5283 56.2448C57.1502 59.8898 63.1499 60.0206 69.6228 61.4423C74.1552 62.4377 79.1707 63.2527 83.8694 62.9273C84.155 62.9075 87.0378 59.7317 87.3509 59.2148C88.4322 57.4297 89 55.6178 89 53.6048C89 49.0972 83.873 44.8355 80.5712 41.9724C77.5004 39.3097 74.3872 36.2892 70.4474 34.7125C68.7515 34.0338 65.0999 32.485 63.4386 32.485" stroke="#00FFFF" stroke-width="3" stroke-linecap="round"/>
<path d="M46.3896 35.7451C44.5241 41.3414 47.2989 43.337 53.6282 43.0753C58.3762 42.879 53.6755 35.4544 50.5129 35.0528C46.8142 34.5832 49.6791 40.8682 50.8794 41.9351C54.8091 45.4281 57.1553 40.6504 56.1022 37.3741C55.1483 34.4064 50.071 33.8154 49.0468 37.3741C47.1348 44.0177 56.206 48.9027 62.6995 47.0662C70.2281 44.9369 61.3493 37.6747 57.7974 36.8854C55.7615 36.433 49.2148 34.4038 48.2221 37.2112C47.4247 39.4665 47.7088 43.8566 49.4133 45.6816C53.4972 50.0541 65.3567 51.1506 65.3567 43.9712C65.3567 41.5733 65.9414 39.1138 63.3867 37.5777C60.0528 35.573 49.5607 32.2708 45.9314 35.0936C44.5053 36.2027 45.606 41.9597 46.1147 43.2382C48.2341 48.5652 53.7462 52.1504 59.4925 53.9891C67.3322 56.4978 73.4477 54.6409 71.7707 46.7404C71.107 43.6138 63.0928 40.6342 61.2334 44.1341C59.863 46.7137 60.1899 50.5062 62.562 52.5231C64.8609 54.4777 72.8345 57.9514 75.5733 55.3737C77.6711 53.3994 78.6157 49.5379 78.5513 46.9033C78.4489 42.7183 72.3357 43.0753 69.0219 43.0753C64.6206 43.0753 61.7577 43.3369 62.1039 47.7992C62.4321 52.0291 66.9623 53.631 71.1293 54.3556C76.5084 55.2911 86.9711 55.669 85.9274 48.2472C85.3356 44.039 71.842 44.7212 71.954 49.1024C72.0266 51.9438 77.4592 58.4687 81.0252 58.4687C82.8859 58.4687 84.7743 52.5836 82.1706 51.8715C77.9704 50.7228 74.7879 51.2025 76.5354 55.8624C78.7443 61.7526 82.2479 58.91 82.4913 53.5005C82.739 47.9951 78.3095 40.4008 72.2747 38.7179C68.2355 37.5915 65.2643 36.5221 65.3567 40.8763C65.3697 41.4893 67.3669 47.8499 68.5179 45.8038C69.4148 44.2093 68.7308 40.492 67.7391 39.0437C66.3261 36.9804 59.5841 30.6455 59.5841 36.6003C59.5841 39.4109 59.1276 42.1489 61.0502 44.5414C62.4675 46.3051 63.6436 46.4082 63.7074 43.9712C63.7708 41.5481 60.2422 32.7641 55.6441 35.908C51.8081 38.5309 53.9039 47.4367 58.3013 48.858C60.0819 49.4335 60.9125 45.6627 61.0502 44.7042C61.4118 42.1861 58.2653 39.4253 56.2397 37.9849C50.1695 33.6684 46.2743 38.3992 49.2301 43.8083C49.8394 44.9235 54.3399 51.3899 55.3234 47.3105C56.0538 44.2807 55.8407 39.9108 53.2617 37.6184C51.0448 35.6479 46.2486 33.5595 42.9993 34.442C41.3 34.9035 42.1378 41.5014 42.8161 42.5866C45.5535 46.9666 50.8561 46.6525 53.8115 42.7495C58.5216 36.5293 51.1778 35.5709 49.3675 41.65C48.653 44.0494 51.5859 53.6873 54.178 48.4508C55.1952 46.396 56.0813 43.5779 54.4529 41.6093C53.5349 40.4995 51.1427 39.2128 49.8715 40.7948C45.6915 45.9964 52.6174 56.4483 58.9427 57.5728C65.477 58.7344 66.0563 50.1068 65.2651 46.4146C64.8604 44.5262 62.354 43.7603 60.4088 43.8083C56.7326 43.8991 57.0079 47.9549 57.1559 50.3241C57.5963 57.3699 62.5107 59.2194 68.4721 54.8036C69.9785 53.6878 72.4205 52.1698 71.9082 50.1204C71.4855 48.4299 69.6128 51.1032 69.48 51.4643C68.3494 54.5384 67.2405 64.5874 74.3363 62.7854C77.7207 61.9258 77.6822 56.018 75.2068 54.4778C70.7203 51.6863 70.9252 59.9684 75.2526 60.6677C78.734 61.2304 82.4889 62.354 82.6745 57.8986C82.8519 53.6427 81.5081 57.4414 81.8957 59.8533C82.069 60.9317 83.3729 60.7175 84.3239 60.6677C85.8724 60.5868 85.1485 57.0531 85.1485 56.1067C85.1485 53.7291 85.4985 52.2767 82.7204 51.505C81.015 51.0313 77.7001 50.5952 76.2147 51.6679C72.2839 54.5068 78.7484 61.5285 79.3301 53.2561C79.5254 50.4791 79.3839 47.3865 77.3601 45.1115C76.3066 43.9272 72.9018 41.7427 71.1293 43.4011C69.915 44.5373 69.525 54.2091 72.7786 52.4417C74.8684 51.3065 74.6057 46.7131 73.924 45.03C72.861 42.4053 68.9651 41.0649 66.1356 40.917C62.0296 40.7023 57.945 41.895 57.2934 46.0074C56.9808 47.9801 57.4857 51.8715 60.4088 51.8715C65.0276 51.8715 67.3527 44.6559 64.3488 41.7722C59.3845 37.0065 55.8385 45.2284 56.4687 48.9395C57.5253 55.1613 61.8522 48.953 59.4925 44.9079C58.6925 43.5365 56.9309 41.041 55.2776 40.3061C54.4231 39.9264 54.9886 46.5962 55.0943 47.0662C56.6602 54.0257 59.3525 48.9957 57.5683 44.7042C54.6607 37.7111 52.0867 44.9885 52.1622 48.6137C52.1758 49.2691 53.0337 53.3412 54.178 51.0163C55.2024 48.935 54.8506 45.3867 53.3992 43.5233C50.0581 39.2335 49.4497 46.6979 49.7798 48.5322C50.6301 53.256 56.9618 51.8715 60.7753 51.8715C65.7243 51.8715 70.8244 51.5469 75.7566 51.9123C77.4119 52.0349 77.4736 54.6815 77.7266 55.8624C78.6712 60.2703 80.2006 54.2334 80.2006 52.6046" stroke="#00FFFF" stroke-width="3" stroke-linecap="round"/>
<path d="M53.572 131.808C52.0545 131.967 50.8983 136.022 50.4834 137.102C49.5934 139.42 45.2038 140.213 43.5606 141.993C42.9723 142.631 43.4424 144.457 42.4955 144.685C41.6556 144.888 40.7756 144.478 40.1525 145.134C39.1853 146.153 38.6582 147.544 38.0224 148.769C37.2544 150.248 56.4998 152.113 58.8439 153.211C62.0434 154.708 68.9551 153.615 72.5297 153.615C77.2337 153.615 81.9376 153.615 86.6415 153.615C88.707 153.615 89.7968 153.259 91.4875 152.852C93.4501 152.379 89.1515 151.3 89.0379 149.576C88.8555 146.81 85.9323 143.252 85.1505 140.288C84.311 137.105 84.0395 133.884 82.3281 131" stroke="#FF0000" stroke-width="3" stroke-linecap="round"/>
<path d="M100.956 83C101.32 86.095 102.287 89.8886 103.823 92.7428C105.132 95.1748 108.09 97.3221 108.549 100.05C109.247 104.204 111.169 113.268 115.717 115.476C117.022 116.11 119.719 118.799 120.017 119.941C120.661 122.401 122.613 121.971 118.159 121.971C111.75 121.971 106.079 119.536 100 119.536" stroke="#FF0000" stroke-width="3" stroke-linecap="round"/>
<path d="M27.2249 87C24.6572 89.4887 23.0876 92.7719 21.0754 95.6612C19.6394 97.7232 17.0796 100.867 16.5836 103.217C15.9842 106.057 10.6914 107.134 9.15079 109.39C7.93852 111.166 5.86219 114.066 4.33817 115.379C2.99804 116.534 0.53484 118.512 3.16176 118.512C7.85902 118.512 12.5048 119.341 17.0649 119.341C21.8771 119.341 28.8843 119.227 33 121" stroke="#FF0000" stroke-width="3" stroke-linecap="round"/>
<path d="M62.5 91C62.5 92.8556 62.5 94.7111 62.5 96.5667C62.5 98.9894 65 100.324 65 102.531C65 105.984 64.1667 109.843 64.1667 112.869C64.1667 116.412 63.3333 119.183 63.3333 122.81C63.3333 124.282 65.3226 126.149 62.5 125.991C60.8023 125.895 60 123.293 60 122.014" stroke="#FF0000" stroke-width="3" stroke-linecap="round"/>
<path d="M59.6933 122C56.2779 119.167 58.7995 111.905 60.5503 109C63.1356 104.711 62.9987 100.769 62.9987 96" stroke="#FF0000" stroke-width="3" stroke-linecap="round"/>
<path d="M43.0539 151C43.0539 155.864 43.0539 160.729 43.0539 165.593C43.0539 167.455 40.6708 169.317 39.4157 170.637C38.4634 171.64 39.1421 172.94 37.7571 174.106C36.6275 175.056 35.7101 176.083 35.296 177.303C34.2932 180.258 25.1758 185.436 33.4234 185.05C35.1679 184.969 35.0598 183.429 36.7941 183.429C38.2387 183.429 39.6833 183.429 41.1278 183.429C45.2862 183.429 44.733 185.324 46.4246 187.888C48.604 191.19 46.9062 198.691 46.9062 202.481C46.9062 206.44 46.6619 205.633 48.8323 202.436C50.198 200.424 50.4328 197.211 53.6475 197.211C61.5886 197.211 60.7289 202.517 63.2781 207.345C64.4998 209.659 65.4695 212.201 66.1137 214.642C67.1357 218.513 66.1672 219.772 66.1672 214.416C66.1672 208.784 67.6542 203.282 72.6946 199.463C77.5712 195.768 85.7925 197.925 88.799 202.481C89.6298 203.74 88.8443 205.2 90.0296 206.309C90.5674 206.812 91.8999 207.564 92.1162 208.201C93.5604 212.456 92.1697 205.189 92.1697 203.877C92.1697 200.581 90.6411 187.097 95.5939 185.906C100.013 184.843 99.7974 188.985 102.282 189.915C103.226 190.268 107.182 196.459 105.652 193.563C105.007 192.341 104.9 190.722 103.94 189.734C103.329 189.106 101.096 187.638 100.891 187.032C99.9355 184.218 100.512 182.704 97.734 180.366C94.2805 177.459 90.4166 173.748 89.227 169.241C88.146 165.146 82.5391 162.065 82.5391 157.486" stroke="#FFD600" stroke-width="3" stroke-linecap="round"/>
<path d="M116 135V161" stroke="#4F4E45" stroke-width="3" stroke-linecap="round"/>
<path d="M20 130V161" stroke="#4F4E45" stroke-width="3" stroke-linecap="round"/>
<path d="M86 224C86 235.603 85.1159 246.933 83.5042 258.473C82.9288 262.593 82.0977 266.715 82.0068 270.869C81.9915 271.566 82.0068 274.483 82.0068 272.045" stroke="#4F4E45" stroke-width="3" stroke-linecap="round"/>
<path d="M40 222C40.8941 230.729 44.3409 239.669 46.5556 248.215C48.2993 254.943 52 263.08 52 270" stroke="#4F4E45" stroke-width="3" stroke-linecap="round"/>
<path d="M126.241 192C126.241 203.192 125.04 215.101 128 226" stroke="#4F4E45" stroke-width="3" stroke-linecap="round"/>
<path d="M19 208C21.1142 213.821 22.0269 220 24 225.902C25.4302 230.18 28 234.517 28 239" stroke="#4F4E45" stroke-width="3" stroke-linecap="round"/>
</g>
<rect x="0.5" y="0.5" width="129" height="274" stroke="black"/>
</g>
<defs>
<filter id="filter0_b_6_169" x="-50" y="-50" width="230" height="375" filterUnits="userSpaceOnUse" color-interpolation-filters="sRGB">
<feFlood flood-opacity="0" result="BackgroundImageFix"/>
<feGaussianBlur in="BackgroundImageFix" stdDeviation="25"/>
<feComposite in2="SourceAlpha" operator="in" result="effect1_backgroundBlur_6_169"/>
<feBlend mode="normal" in="SourceGraphic" in2="effect1_backgroundBlur_6_169" result="shape"/>
</filter>
<clipPath id="clip0_6_169">
<rect width="130" height="275" fill="white"/>
</clipPath>
</defs>
</svg>
